Coordinates
version=1
nRows=36
nColumns=30
inDegrees=yes

Units are S.I. units (second, meters, Newtons, ...)
Angles are in degrees.

endheader
time	floatyaw	floatroll	floatpitch	floatx	floaty	floatz	pro_sup_l	deviation_l	flexion_l	cmc_flexion_l	cmc_abduction_l	mp_flexion_l	ip_flexion_l	2mcp_flexion_l	2mcp_abduction_l	2pm_flexion_l	2md_flexion_l	3mcp_flexion_l	3mcp_abduction_l	3pm_flexion_l	3md_flexion_l	4mcp_flexion_l	4mcp_abduction_l	4pm_flexion_l	4md_flexion_l	5mcp_flexion_l	5mcp_abduction_l	5pm_flexion_l	5md_flexion_l
0.005000	-160.147433	-5.066637	-73.570646	-0.070085	-0.134095	-0.123104	38.164482	-13.006584	-9.570280	9.339364	6.322598	-34.349687	-53.150473	42.030042	14.797340	54.823632	48.204360	53.637707	6.112181	53.105576	34.949293	49.704874	-6.611404	52.494433	42.031055	23.161246	-13.586680	65.513808	58.036596
0.015000	-160.147433	-5.066637	-73.570646	-0.070081	-0.130531	-0.123619	37.771583	-12.749401	-10.327884	9.457734	5.978267	-34.274430	-53.372149	43.003520	15.250242	54.033415	49.125088	54.903469	6.052504	52.685127	34.775008	50.777492	-6.781159	52.035660	42.125788	24.004684	-13.435661	65.631540	58.425592
0.025000	-160.147433	-5.066637	-73.570646	-0.070105	-0.126375	-0.124163	37.636703	-12.496243	-11.200357	9.737819	5.086802	-34.212711	-53.666419	44.114285	15.715645	53.213963	50.293369	56.318243	5.990589	52.238989	34.533181	52.090815	-6.978502	51.404029	42.304122	25.081888	-13.235226	65.778713	58.729688
0.035000	-160.147433	-5.066637	-73.570646	-0.070178	-0.122187	-0.124639	37.655913	-12.370019	-12.047952	9.995745	4.032655	-34.211577	-53.980738	45.293210	16.146893	52.401900	51.620393	57.725237	5.938789	51.788450	34.266759	53.448456	-7.177819	50.673828	42.595203	26.244727	-13.013707	65.909514	58.950830
0.045000	-160.147433	-5.066637	-73.570646	-0.070283	-0.118600	-0.124956	37.633112	-12.432026	-12.724754	10.065704	3.265019	-34.307141	-54.257273	46.440441	16.491246	51.646703	52.930849	58.943175	5.915772	51.364971	34.021710	54.598733	-7.343794	49.987536	42.994865	27.264168	-12.828269	66.013969	59.120666
0.055000	-160.147433	-5.066637	-73.570646	-0.070369	-0.116096	-0.125068	37.366220	-12.653903	-13.153622	9.870374	3.096277	-34.494827	-54.442207	47.465404	16.711407	51.009304	54.020443	59.835388	5.935500	51.007576	33.834004	55.339654	-7.446494	49.502631	43.458122	27.937784	-12.738402	66.120014	59.279092
0.065000	-160.147433	-5.066637	-73.570646	-0.070375	-0.114843	-0.124997	36.748662	-12.934115	-13.356465	9.445004	3.564556	-34.723566	-54.497967	48.312573	16.801937	50.546152	54.736795	60.355551	5.996438	50.752148	33.719029	55.600593	-7.474759	49.321873	43.908456	28.179334	-12.774566	66.272109	59.450058
0.075000	-160.147433	-5.066637	-73.570646	-0.070259	-0.114669	-0.124812	35.822775	-13.151512	-13.424218	8.905680	4.446671	-34.921259	-54.416185	48.965262	16.790625	50.287484	55.040961	60.550155	6.079630	50.618192	33.669085	55.456245	-7.440050	49.450139	44.265817	28.043493	-12.921792	66.502026	59.633315
0.085000	-160.147433	-5.066637	-73.570646	-0.070019	-0.115182	-0.124589	34.755037	-13.223950	-13.454329	8.387699	5.399200	-35.032018	-54.221901	49.432708	16.724831	50.223797	55.014296	60.523432	6.157583	50.600456	33.659473	55.073180	-7.369258	49.800944	44.478940	27.682535	-13.128243	66.809726	59.815696
0.095000	-160.147433	-5.066637	-73.570646	-0.069695	-0.115940	-0.124376	33.754164	-13.138845	-13.501544	7.992503	6.123815	-35.039041	-53.963694	49.733627	16.651515	50.308362	54.809185	60.388998	6.207967	50.670536	33.659535	54.628593	-7.291810	50.243014	44.542573	27.269659	-13.331924	67.162985	59.990144
0.105000	-160.147433	-5.066637	-73.570646	-0.069346	-0.116609	-0.124185	32.982507	-12.943741	-13.567482	7.766512	6.462526	-34.961696	-53.693941	49.886163	16.601382	50.474074	54.575433	60.231747	6.223335	50.787983	33.643693	54.245943	-7.228570	50.656933	44.490908	26.931717	-13.488106	67.512357	60.166195
0.115000	-160.147433	-5.066637	-73.570646	-0.069028	-0.117034	-0.124006	32.504586	-12.710061	-13.621282	7.709398	6.399802	-34.834589	-53.448864	49.905056	16.583162	50.657479	54.403297	60.090606	6.211825	50.915542	33.598627	53.969835	-7.187342	50.974072	44.374553	26.716896	-13.582514	67.811778	60.363629
0.125000	-160.147433	-5.066637	-73.570646	-0.068767	-0.117223	-0.123818	32.287918	-12.494712	-13.627449	7.793990	6.009362	-34.685130	-53.237341	49.801479	16.587901	50.820446	54.307319	59.961053	6.190105	51.031748	33.525162	53.777015	-7.165047	51.186383	44.236729	26.599657	-13.626893	68.035911	60.594610
0.135000	-160.147433	-5.066637	-73.570646	-0.068562	-0.117280	-0.123605	32.242590	-12.319039	-13.563421	7.982737	5.395282	-34.522314	-53.042880	49.582889	16.598637	50.959907	54.248471	59.810814	6.173960	51.135743	33.435730	53.607156	-7.153354	51.331608	44.100818	26.510308	-13.644518	68.188943	60.848895
0.145000	-160.147433	-5.066637	-73.570646	-0.068387	-0.117321	-0.123361	32.271647	-12.170634	-13.423626	8.237313	4.653923	-34.339267	-52.836714	49.254508	16.599724	51.100608	54.173648	59.600829	6.171902	51.242653	33.349267	53.396328	-7.144027	51.466145	43.971651	26.372362	-13.656545	68.302424	61.095011
0.155000	-160.147433	-5.066637	-73.570646	-0.068216	-0.117427	-0.123090	32.307418	-12.020579	-13.215655	8.525304	3.858130	-34.123730	-52.594442	48.824367	16.582067	51.274603	54.048924	59.303779	6.184078	51.372247	33.285221	53.101414	-7.131835	51.638213	43.845057	26.133261	-13.675640	68.422587	61.298678
0.165000	-160.147433	-5.066637	-73.570646	-0.068028	-0.117620	-0.122799	32.323100	-11.843042	-12.954690	8.826351	3.055267	-33.868484	-52.307482	48.309573	16.543694	51.499238	53.872506	58.914196	6.205238	51.536986	33.257991	52.710299	-7.114874	51.870810	43.717667	25.779198	-13.706425	68.591734	61.445675
0.175000	-160.147433	-5.066637	-73.570646	-0.067818	-0.117878	-0.122499	32.323739	-11.626767	-12.658831	9.135347	2.272019	-33.576601	-51.984613	47.738081	16.487444	51.766542	53.666717	58.447825	6.228833	51.735740	33.272940	52.238329	-7.093438	52.158927	43.591213	25.331463	-13.748400	68.831711	61.550506
0.185000	-160.147433	-5.066637	-73.570646	-0.067587	-0.118163	-0.122201	32.328509	-11.375485	-12.345101	9.459228	1.521637	-33.260207	-51.644609	47.142560	16.418154	52.049526	53.458600	57.932430	6.249814	51.955761	33.325036	51.715728	-7.068761	52.479174	43.470156	24.829179	-13.797742	69.136918	61.642018
0.195000	-160.147433	-5.066637	-73.570646	-0.067345	-0.118443	-0.121911	32.355323	-11.101077	-12.025672	9.807942	0.810182	-32.934455	-51.305113	46.549190	16.340782	52.319445	53.262490	57.395598	6.265447	52.180256	33.400696	51.172785	-7.042370	52.804618	43.356055	24.308616	-13.847588	69.479380	61.736606
0.205000	-160.147433	-5.066637	-73.570646	-0.067096	-0.118702	-0.121627	32.413132	-10.815841	-11.705050	10.184929	0.139978	-32.610816	-50.974453	45.968551	16.259662	52.561347	53.074614	56.855352	6.274815	52.396135	33.482537	50.629158	-7.015929	53.116290	43.244144	23.789260	-13.888791	69.822226	61.821416
0.215000	-160.147433	-5.066637	-73.570646	-0.066845	-0.118939	-0.121345	32.501386	-10.528238	-11.379804	10.582898	-0.488749	-32.294283	-50.651305	45.394354	16.178421	52.778120	52.881478	56.316981	6.278044	52.597625	33.555600	50.090732	-6.991068	53.406440	43.125611	23.271561	-13.912641	70.133909	61.861792
0.225000	-160.147433	-5.066637	-73.570646	-0.066591	-0.119160	-0.121058	32.613194	-10.242685	-11.041610	10.986138	-1.075727	-31.985956	-50.331528	44.810411	16.100134	52.982678	52.674746	55.776086	6.275850	52.785019	33.612535	49.553449	-6.968974	53.674606	42.994301	22.744476	-13.914646	70.396093	61.826433
0.235000	-160.147433	-5.066637	-73.570646	-0.066335	-0.119370	-0.120761	32.738950	-9.961385	-10.682453	11.375644	-1.617184	-31.687961	-50.015854	44.201318	16.027360	53.185790	52.461225	55.225074	6.269392	52.960775	33.655152	49.010250	-6.949986	53.921784	42.852442	22.196440	-13.896687	70.603291	61.709667
0.245000	-160.147433	-5.066637	-73.570646	-0.066076	-0.119572	-0.120452	32.869020	-9.685856	-10.299372	11.732975	-2.103017	-31.406262	-49.712054	43.561072	15.961678	53.388228	52.260652	54.659201	6.260187	53.126040	33.691499	48.456687	-6.933537	54.147625	42.710404	21.623279	-13.865822	70.758095	61.534825
0.255000	-160.147433	-5.066637	-73.570646	-0.065816	-0.119767	-0.120134	32.995480	-9.417141	-9.896432	12.042361	-2.517302	-31.149744	-49.430950	42.896120	15.902638	53.580941	52.093420	54.079420	6.250020	53.279350	33.730412	47.893078	-6.918509	54.351418	42.580534	21.030253	-13.830543	70.867057	61.339391
0.265000	-160.147433	-5.066637	-73.570646	-0.065555	-0.119957	-0.119812	33.113293	-9.155059	-9.483186	12.292960	-2.842587	-30.927199	-49.180934	42.222572	15.846887	53.750967	51.967821	53.491731	6.240798	53.417237	33.776947	47.323842	-6.903748	54.533868	42.470364	20.429474	-13.796899	70.938811	61.155531
0.275000	-160.147433	-5.066637	-73.570646	-0.065295	-0.120145	-0.119493	33.220974	-8.897671	-9.070907	12.481725	-3.065828	-30.744222	-48.965093	41.559817	15.788689	53.888035	51.875930	52.904903	6.234165	53.535514	33.831034	46.755868	-6.888424	54.696982	42.380437	19.835753	-13.766584	70.982800	60.999134
0.285000	-160.147433	-5.066637	-73.570646	-0.065037	-0.120334	-0.119178	33.320484	-8.641888	-8.669075	12.614811	-3.183586	-30.600911	-48.781224	40.923961	15.722250	53.988217	51.799884	52.328671	6.230806	53.630436	33.889017	46.197303	-6.872111	54.842242	42.307119	19.263249	-13.737535	71.007039	60.870466
0.295000	-160.147433	-5.066637	-73.570646	-0.064784	-0.120527	-0.118869	33.416102	-8.385266	-8.284051	12.705505	-3.205234	-30.490914	-48.623198	40.324211	15.644654	54.053822	51.722976	51.773097	6.229930	53.699607	33.946077	45.657042	-6.854646	54.969094	42.246535	18.723638	-13.706273	71.015438	60.761020
0.305000	-160.147433	-5.066637	-73.570646	-0.064537	-0.120727	-0.118567	33.512476	-8.127881	-7.919747	12.769170	-3.152944	-30.402756	-48.483018	39.763076	15.557393	54.090715	51.638204	51.247941	6.229559	53.742515	33.997939	45.144067	-6.835922	55.074960	42.196342	18.225014	-13.670499	71.006527	60.660291
0.315000	-160.147433	-5.066637	-73.570646	-0.064300	-0.120928	-0.118276	33.612423	-7.872995	-7.578434	12.817938	-3.057122	-30.323649	-48.353490	39.238566	15.465381	54.104996	51.550339	50.760640	6.227607	53.760478	34.041818	44.665414	-6.815790	55.156452	42.155433	17.770264	-13.630527	70.975082	60.560044
0.325000	-160.147433	-5.066637	-73.570646	-0.064071	-0.121125	-0.117997	33.715270	-7.626071	-7.260412	12.857905	-2.947908	-30.244246	-48.230547	38.745793	15.374210	54.101116	51.471930	50.313118	6.222986	53.756229	34.077262	44.222917	-6.794193	55.211111	42.123495	17.354917	-13.588926	70.916467	60.456382
0.335000	-160.147433	-5.066637	-73.570646	-0.063850	-0.121313	-0.117732	33.816590	-7.392881	-6.963161	12.889648	-2.846503	-30.161905	-48.113848	38.277222	15.287542	54.082630	51.416061	49.899497	6.215969	53.733886	34.106959	43.810836	-6.771463	55.239291	42.101249	16.966324	-13.548858	70.831636	60.349820
0.345000	-160.147433	-5.066637	-73.570646	-0.063633	-0.121487	-0.117484	33.909895	-7.177739	-6.681522	12.910721	-2.760610	-30.080739	-48.005287	37.822988	15.206099	54.054899	51.388965	49.506984	6.207748	53.699478	34.136678	43.416888	-6.748500	55.245642	42.090326	16.586406	-13.512368	70.729951	60.242916
0.355000	-160.147433	-5.066637	-73.570646	-0.063419	-0.121646	-0.117249	33.989814	-6.982484	-6.409586	12.918141	-2.685588	-30.008506	-47.906400	37.373147	15.128372	54.027152	51.385170	49.120506	6.199757	53.661048	34.173573	43.027267	-6.726561	55.239135	42.091729	16.198019	-13.479756	70.627928	60.136144
